<svg xmlns="http://www.w3.org/2000/svg" xmlns:xlink="http://www.w3.org/1999/xlink" width="500" zoomAndPan="magnify" viewBox="0 0 375 374.999991" height="500" preserveAspectRatio="xMidYMid meet" version="1.0"><defs><clipPath id="6f2844b6d5"><path d="M 15.285156 55 L 359.535156 55 L 359.535156 319.707031 L 15.285156 319.707031 Z M 15.285156 55 " clip-rule="nonzero"/></clipPath></defs><g clip-path="url(#6f2844b6d5)"><path fill="#00d85d" d="M 335.984375 162.886719 L 335.984375 133.992188 C 335.984375 121.964844 326.144531 112.121094 314.117188 112.121094 L 118.066406 112.121094 L 258.394531 96.808594 L 258.394531 71.347656 C 258.394531 66.332031 256.226562 62.015625 252.199219 59.027344 C 248.175781 56.035156 243.421875 55.199219 238.617188 56.644531 L 65.207031 108.828125 C 58.617188 110.8125 54.28125 116.644531 54.28125 123.53125 L 54.28125 173.027344 L 113.199219 173.027344 C 123.296875 173.027344 131.550781 181.289062 131.550781 191.382812 C 131.550781 201.480469 123.292969 209.738281 113.199219 209.738281 L 33.636719 209.738281 C 23.542969 209.742188 15.285156 218.003906 15.285156 228.097656 C 15.285156 238.1875 23.542969 246.449219 33.636719 246.449219 L 165.058594 246.449219 C 175.15625 246.449219 183.410156 254.710938 183.410156 264.804688 C 183.410156 274.898438 175.152344 283.15625 165.058594 283.15625 L 111.601562 283.15625 C 101.5 283.15625 93.246094 291.417969 93.246094 301.511719 C 93.246094 311.609375 101.507812 319.863281 111.601562 319.863281 L 314.109375 319.863281 C 326.136719 319.863281 335.980469 310.023438 335.980469 297.996094 L 335.980469 269.097656 L 295.414062 269.097656 C 291.832031 269.097656 288.90625 266.171875 288.90625 262.59375 C 288.90625 259.011719 291.832031 256.085938 295.414062 256.085938 L 347.316406 256.085938 C 354.148438 256.085938 359.722656 250.511719 359.722656 243.679688 L 359.722656 188.308594 C 359.722656 181.476562 354.152344 175.902344 347.316406 175.902344 L 272.925781 175.902344 C 269.347656 175.902344 266.414062 172.976562 266.414062 169.394531 C 266.414062 165.8125 269.339844 162.882812 272.925781 162.882812 L 335.984375 162.882812 Z M 270.945312 204.613281 C 264.65625 204.613281 259.554688 209.710938 259.554688 216.003906 C 259.554688 222.292969 264.65625 227.394531 270.945312 227.394531 C 277.234375 227.394531 282.335938 222.292969 282.335938 216.003906 C 282.335938 209.707031 277.234375 204.613281 270.945312 204.613281 Z M 243.867188 215.996094 C 243.867188 201.101562 256.050781 188.917969 270.945312 188.917969 L 346.707031 188.917969 L 346.707031 243.074219 L 270.945312 243.074219 C 256.058594 243.074219 243.867188 230.890625 243.867188 215.996094 Z M 243.867188 215.996094 " fill-opacity="1" fill-rule="evenodd"/></g></svg>